<svg width="42" height="40" viewBox="0 0 42 40" fill="none" xmlns="http://www.w3.org/2000/svg">
<path fill-rule="evenodd" clip-rule="evenodd" d="M28.3641 14.5454C28.3641 16.4743 27.5842 18.3241 26.1958 19.688C24.8075 21.0519 22.9245 21.8182 20.9611 21.8182C18.9977 21.8182 17.1147 21.0519 15.7264 19.688C14.3381 18.3241 13.5581 16.4743 13.5581 14.5454C13.5581 12.6166 14.3381 10.7667 15.7264 9.40284C17.1147 8.03894 18.9977 7.27271 20.9611 7.27271C22.9245 7.27271 24.8075 8.03894 26.1958 9.40284C27.5842 10.7667 28.3641 12.6166 28.3641 14.5454ZM24.6626 14.5454C24.6626 15.5099 24.2726 16.4348 23.5785 17.1167C22.8843 17.7987 21.9428 18.1818 20.9611 18.1818C19.9794 18.1818 19.0379 17.7987 18.3438 17.1167C17.6496 16.4348 17.2596 15.5099 17.2596 14.5454C17.2596 13.581 17.6496 12.6561 18.3438 11.9741C19.0379 11.2922 19.9794 10.9091 20.9611 10.9091C21.9428 10.9091 22.8843 11.2922 23.5785 11.9741C24.2726 12.6561 24.6626 13.581 24.6626 14.5454Z" fill="#252A34"/>
<path fill-rule="evenodd" clip-rule="evenodd" d="M20.9611 0C9.71774 0 0.602783 8.95455 0.602783 20C0.602783 31.0455 9.71774 40 20.9611 40C32.2044 40 41.3193 31.0455 41.3193 20C41.3193 8.95455 32.2044 0 20.9611 0ZM4.30429 20C4.30429 23.8 5.62387 27.2982 7.83552 30.0764C9.38873 28.0725 11.3925 26.4486 13.6903 25.3315C15.988 24.2143 18.5176 23.6342 21.0814 23.6364C23.6119 23.634 26.1097 24.1991 28.3843 25.2887C30.6589 26.3783 32.6503 27.9635 34.2069 29.9236C35.8105 27.8575 36.8902 25.4458 37.3567 22.8883C37.8232 20.3308 37.663 17.701 36.8895 15.2163C36.1161 12.7317 34.7514 10.4637 32.9086 8.60007C31.0657 6.73641 28.7976 5.33065 26.2919 4.49911C23.7863 3.66756 21.115 3.43413 18.4993 3.81813C15.8836 4.20214 13.3985 5.19253 11.2497 6.70737C9.10097 8.22221 7.35028 10.2179 6.14251 12.5294C4.93474 14.8409 4.30462 17.4018 4.30429 20ZM20.9611 36.3636C17.1373 36.3693 13.429 35.077 10.4636 32.7055C11.6572 31.0268 13.2459 29.6562 15.0945 28.7103C16.9432 27.7645 18.997 27.2713 21.0814 27.2727C23.1397 27.2711 25.1687 27.752 26.9999 28.6753C28.8311 29.5987 30.4117 30.9379 31.6103 32.5818C28.6219 35.0304 24.8524 36.369 20.9611 36.3636Z" fill="#252A34"/>
</svg>
