<svg width="17" height="23" viewBox="0 0 17 23" fill="none" xmlns="http://www.w3.org/2000/svg">
<path fill-rule="evenodd" clip-rule="evenodd" d="M15.644 0.672363C15.1354 0.672363 14.7231 1.08467 14.7231 1.59327V10.1829L2.0286 2.61743C1.91531 2.54992 1.78674 2.5143 1.65583 2.51417C1.52492 2.51404 1.39628 2.54939 1.28285 2.61668C1.16943 2.68397 1.07522 2.78081 1.00969 2.89747C0.944164 3.01414 0.909635 3.1465 0.909576 3.28126V20.1648C0.909576 20.3684 0.988122 20.5636 1.12793 20.7075C1.26775 20.8514 1.45737 20.9323 1.6551 20.9323C1.7863 20.9322 1.91515 20.8965 2.0286 20.8286L14.7231 13.2632V21.8532C14.7231 22.3618 15.1354 22.7741 15.644 22.7741C16.1526 22.7741 16.5649 22.3618 16.5649 21.8532L16.5649 11.723L16.5649 1.59327C16.5649 1.08467 16.1526 0.672363 15.644 0.672363Z" fill="#928A8A"/>
</svg>
