<svg width="40" height="36" viewBox="0 0 40 36" fill="none" xmlns="http://www.w3.org/2000/svg">
<path d="M21.6667 24.7395C21.6667 27.6405 24.2883 30 27.5117 30C30.735 30 33.3567 27.6405 33.3567 24.7395C33.3567 24.474 33.3117 24.219 33.2683 23.964H33.3333V9H36.6667V6H31.6667C31.2246 6 30.8007 6.15804 30.4881 6.43934C30.1756 6.72064 30 7.10217 30 7.5V19.9995C29.224 19.6615 28.3738 19.4842 27.5117 19.4805C25.9622 19.4817 24.4765 20.0361 23.3807 21.022C22.2849 22.008 21.6684 23.3449 21.6667 24.7395ZM3.33333 7.5H26.6667V10.5H3.33333V7.5Z" fill="#FB94B7"/>
<path d="M3.33333 13.5H26.6667V16.5H3.33333V13.5ZM3.33333 19.5H18.3333V22.5H3.33333V19.5ZM3.33333 25.5H18.3333V28.5H3.33333V25.5Z" fill="#FB94B7"/>
</svg>
