<svg width="17" height="23" viewBox="0 0 17 23" fill="none" xmlns="http://www.w3.org/2000/svg">
<path fill-rule="evenodd" clip-rule="evenodd" d="M1.3559 22.774C1.8645 22.774 2.2768 22.3617 2.2768 21.8531L2.2768 13.2635L14.9713 20.829C15.0846 20.8965 15.2132 20.9321 15.3441 20.9322C15.475 20.9324 15.6037 20.897 15.7171 20.8297C15.8305 20.7624 15.9247 20.6656 15.9902 20.5489C16.0558 20.4323 16.0903 20.2999 16.0904 20.1652L16.0904 3.2816C16.0904 3.07806 16.0118 2.88286 15.872 2.73894C15.7322 2.59501 15.5426 2.51416 15.3448 2.51416C15.2136 2.51419 15.0848 2.54993 14.9713 2.61776L2.2768 10.1833L2.2768 1.59326C2.2768 1.08466 1.8645 0.672355 1.3559 0.672355C0.847296 0.672355 0.434993 1.08466 0.434993 1.59326L0.434995 11.7234L0.434995 21.8531C0.434995 22.3617 0.847298 22.774 1.3559 22.774Z" fill="#A59F9F"/>
</svg>
