<svg width="47" height="47" viewBox="0 0 47 47" fill="none" xmlns="http://www.w3.org/2000/svg">
<path d="M42.522 20.5233L38.1483 19.2178C37.846 18.162 37.4301 17.1421 36.9081 16.1758L39.0492 12.1678C39.1295 12.0165 39.1589 11.8433 39.1331 11.674C39.1072 11.5047 39.0274 11.3482 38.9056 11.2278L35.7853 8.09445C35.6649 7.9726 35.5084 7.89282 35.3391 7.86695C35.1697 7.84108 34.9966 7.8705 34.8453 7.95084L30.8633 10.0789C29.8876 9.53142 28.8543 9.09358 27.7822 8.77334L26.4767 4.45195C26.4214 4.29269 26.3171 4.15507 26.1787 4.05888C26.0403 3.96269 25.8749 3.9129 25.7064 3.91667H21.2936C21.1241 3.91746 20.9592 3.97234 20.823 4.07331C20.6868 4.17427 20.5864 4.31607 20.5364 4.47806L19.2308 8.7864C18.1499 9.10492 17.1077 9.54281 16.1236 10.092L12.2069 7.97695C12.0557 7.89661 11.8825 7.86719 11.7132 7.89306C11.5438 7.91893 11.3873 7.99871 11.2669 8.12056L8.09445 11.2147C7.9726 11.3351 7.89282 11.4916 7.86695 11.6609C7.84108 11.8303 7.8705 12.0034 7.95084 12.1547L10.0658 16.0714C9.51758 17.0513 9.07971 18.0891 8.76028 19.1656L4.43889 20.4711C4.2769 20.5211 4.1351 20.6216 4.03413 20.7578C3.93316 20.8939 3.87829 21.0588 3.8775 21.2283V25.6411C3.87829 25.8107 3.93316 25.9755 4.03413 26.1117C4.1351 26.2479 4.2769 26.3483 4.43889 26.3983L8.78639 27.7039C9.10932 28.7625 9.54711 29.7825 10.0919 30.7458L7.95084 34.8453C7.8705 34.9966 7.84108 35.1697 7.86695 35.3391C7.89282 35.5084 7.9726 35.6649 8.09445 35.7853L11.2147 38.9056C11.3351 39.0274 11.4916 39.1072 11.6609 39.1331C11.8303 39.1589 12.0034 39.1295 12.1547 39.0492L16.1889 36.895C17.1432 37.41 18.1499 37.8214 19.1917 38.1222L20.4972 42.522C20.5473 42.6839 20.6477 42.8257 20.7839 42.9267C20.9201 43.0277 21.0849 43.0826 21.2544 43.0833H25.6672C25.8368 43.0826 26.0016 43.0277 26.1378 42.9267C26.274 42.8257 26.3744 42.6839 26.4244 42.522L27.73 38.1092C28.7629 37.8068 29.7608 37.3954 30.7067 36.882L34.767 39.0492C34.9182 39.1295 35.0914 39.1589 35.2607 39.1331C35.4301 39.1072 35.5866 39.0274 35.707 38.9056L38.8272 35.7853C38.9491 35.6649 39.0289 35.5084 39.0547 35.3391C39.0806 35.1697 39.0512 34.9966 38.9708 34.8453L36.8036 30.7981C37.3224 29.8485 37.7382 28.8463 38.0439 27.8083L42.4436 26.5028C42.6056 26.4528 42.7474 26.3523 42.8484 26.2162C42.9493 26.08 43.0042 25.9151 43.005 25.7456V21.2936C43.0127 21.1313 42.9706 20.9705 42.8842 20.8328C42.7979 20.6951 42.6714 20.5871 42.522 20.5233ZM23.5 30.6806C22.0798 30.6806 20.6915 30.2594 19.5107 29.4704C18.3299 28.6814 17.4095 27.56 16.866 26.2479C16.3226 24.9358 16.1804 23.492 16.4574 22.0992C16.7345 20.7063 17.4184 19.4268 18.4226 18.4226C19.4268 17.4184 20.7063 16.7345 22.0991 16.4574C23.492 16.1804 24.9358 16.3226 26.2479 16.866C27.56 17.4095 28.6814 18.3299 29.4704 19.5107C30.2594 20.6915 30.6806 22.0798 30.6806 23.5C30.6806 25.4044 29.924 27.2308 28.5774 28.5774C27.2308 29.924 25.4044 30.6806 23.5 30.6806Z" fill="#252A34"/>
</svg>
